<svg width="14" height="16" viewBox="0 0 14 16" fill="none" xmlns="http://www.w3.org/2000/svg">
<g clip-path="url(#clip0_24_2)">
<rect x="1" width="1" height="1" fill="#19153D"/>
<rect x="1" y="1" width="1" height="1" fill="#4A91E6"/>
<rect x="1" y="2" width="1" height="1" fill="#55C6FF"/>
<rect x="1" y="3" width="1" height="1" fill="#55C6FF"/>
<rect x="1" y="4" width="1" height="1" fill="#C83931"/>
<rect x="1" y="5" width="1" height="1" fill="#C83931"/>
<rect x="1" y="6" width="1" height="1" fill="#4A91E6"/>
<rect x="1" y="7" width="1" height="1" fill="#55C6FF"/>
<rect x="1" y="8" width="1" height="1" fill="#55C6FF"/>
<rect x="1" y="9" width="1" height="1" fill="#4A91E6"/>
<rect x="1" y="10" width="1" height="1" fill="#3642AE"/>
<rect x="1" y="11" width="1" height="1" fill="#3642AE"/>
<rect x="1" y="12" width="1" height="1" fill="#3642AE"/>
<rect x="1" y="13" width="1" height="1" fill="#3642AE"/>
<rect x="1" y="14" width="1" height="1" fill="#3642AE"/>
<rect x="2" y="14" width="1" height="1" fill="#3642AE"/>
<rect x="3" y="14" width="1" height="1" fill="#3642AE"/>
<rect x="4" y="14" width="1" height="1" fill="#3642AE"/>
<rect x="5" y="14" width="1" height="1" fill="#2F2772"/>
<rect x="6" y="14" width="1" height="1" fill="#942B4E"/>
<rect x="7" y="14" width="1" height="1" fill="#942B4E"/>
<rect x="8" y="14" width="1" height="1" fill="#3642AE"/>
<rect x="9" y="14" width="1" height="1" fill="#3642AE"/>
<rect x="10" y="14" width="1" height="1" fill="#3642AE"/>
<rect x="11" y="14" width="1" height="1" fill="#3642AE"/>
<rect x="12" y="14" width="1" height="1" fill="#3642AE"/>
<rect x="12" y="13" width="1" height="1" fill="#3642AE"/>
<rect x="12" y="12" width="1" height="1" fill="#3642AE"/>
<rect x="12" y="11" width="1" height="1" fill="#3642AE"/>
<rect x="12" y="10" width="1" height="1" fill="#3642AE"/>
<rect x="12" y="9" width="1" height="1" fill="#4A91E6"/>
<rect x="12" y="8" width="1" height="1" fill="#55C6FF"/>
<rect x="12" y="7" width="1" height="1" fill="#55C6FF"/>
<rect x="12" y="6" width="1" height="1" fill="#4A91E6"/>
<rect x="12" y="5" width="1" height="1" fill="#C83931"/>
<rect x="12" y="4" width="1" height="1" fill="#C83931"/>
<rect x="12" y="3" width="1" height="1" fill="#55C6FF"/>
<rect x="12" y="2" width="1" height="1" fill="#55C6FF"/>
<rect x="12" y="1" width="1" height="1" fill="#4A91E6"/>
<rect x="11" y="1" width="1" height="1" fill="#4A91E6"/>
<rect x="10" y="1" width="1" height="1" fill="#4A91E6"/>
<rect x="9" y="1" width="1" height="1" fill="#4A91E6"/>
<rect x="8" y="1" width="1" height="1" fill="#4A91E6"/>
<rect x="7" y="1" width="1" height="1" fill="#C83931"/>
<rect x="6" y="1" width="1" height="1" fill="#C83931"/>
<rect x="5" y="1" width="1" height="1" fill="#4A91E6"/>
<rect x="4" y="1" width="1" height="1" fill="#4A91E6"/>
<rect x="3" y="1" width="1" height="1" fill="#4A91E6"/>
<rect x="2" y="1" width="1" height="1" fill="#4A91E6"/>
<rect x="2" y="2" width="1" height="1" fill="#4A91E6"/>
<rect x="2" y="3" width="1" height="1" fill="#4A91E6"/>
<rect x="2" y="4" width="1" height="1" fill="#C83931"/>
<rect x="2" y="5" width="1" height="1" fill="#C83931"/>
<rect x="2" y="6" width="1" height="1" fill="#5A5AC2"/>
<rect x="2" y="7" width="1" height="1" fill="#4A91E6"/>
<rect x="2" y="8" width="1" height="1" fill="#4A91E6"/>
<rect x="2" y="9" width="1" height="1" fill="#55C6FF"/>
<rect x="2" y="10" width="1" height="1" fill="#3642AE"/>
<rect x="2" y="11" width="1" height="1" fill="#3642AE"/>
<rect x="2" y="12" width="1" height="1" fill="#3642AE"/>
<rect x="2" y="13" width="1" height="1" fill="#3642AE"/>
<rect x="3" y="13" width="1" height="1" fill="#3642AE"/>
<rect x="4" y="13" width="1" height="1" fill="#3642AE"/>
<rect x="5" y="13" width="1" height="1" fill="#2F2772"/>
<rect x="6" y="13" width="1" height="1" fill="#942B4E"/>
<rect x="7" y="13" width="1" height="1" fill="#942B4E"/>
<rect x="8" y="13" width="1" height="1" fill="#3642AE"/>
<rect x="9" y="13" width="1" height="1" fill="#3642AE"/>
<rect x="10" y="13" width="1" height="1" fill="#3642AE"/>
<rect x="11" y="13" width="1" height="1" fill="#3642AE"/>
<rect x="11" y="12" width="1" height="1" fill="#3642AE"/>
<rect x="11" y="11" width="1" height="1" fill="#3642AE"/>
<rect x="11" y="10" width="1" height="1" fill="#3642AE"/>
<rect x="11" y="9" width="1" height="1" fill="#55C6FF"/>
<rect x="11" y="8" width="1" height="1" fill="#4A91E6"/>
<rect x="11" y="7" width="1" height="1" fill="#4A91E6"/>
<rect x="11" y="6" width="1" height="1" fill="#5A5AC2"/>
<rect x="11" y="5" width="1" height="1" fill="#C83931"/>
<rect x="11" y="4" width="1" height="1" fill="#C83931"/>
<rect x="11" y="3" width="1" height="1" fill="#4A91E6"/>
<rect x="11" y="2" width="1" height="1" fill="#4A91E6"/>
<rect x="10" y="2" width="1" height="1" fill="#4A91E6"/>
<rect x="9" y="2" width="1" height="1" fill="#4A91E6"/>
<rect x="8" y="2" width="1" height="1" fill="#4A91E6"/>
<rect x="7" y="2" width="1" height="1" fill="#C83931"/>
<rect x="6" y="2" width="1" height="1" fill="#C83931"/>
<rect x="5" y="2" width="1" height="1" fill="#4A91E6"/>
<rect x="4" y="2" width="1" height="1" fill="#4A91E6"/>
<rect x="3" y="2" width="1" height="1" fill="#4A91E6"/>
<rect x="3" y="3" width="1" height="1" fill="#4A91E6"/>
<rect x="3" y="4" width="1" height="1" fill="#C83931"/>
<rect x="3" y="5" width="1" height="1" fill="#C83931"/>
<rect x="3" y="6" width="1" height="1" fill="#5A5AC2"/>
<rect x="3" y="7" width="1" height="1" fill="#4A91E6"/>
<rect x="3" y="8" width="1" height="1" fill="#4A91E6"/>
<rect x="3" y="9" width="1" height="1" fill="#55C6FF"/>
<rect x="3" y="10" width="1" height="1" fill="#3642AE"/>
<rect x="3" y="11" width="1" height="1" fill="#3642AE"/>
<rect x="3" y="12" width="1" height="1" fill="#3642AE"/>
<rect x="4" y="12" width="1" height="1" fill="#3642AE"/>
<rect x="5" y="12" width="1" height="1" fill="#2F2772"/>
<rect x="6" y="12" width="1" height="1" fill="#942B4E"/>
<rect x="7" y="12" width="1" height="1" fill="#942B4E"/>
<rect x="8" y="12" width="1" height="1" fill="#3642AE"/>
<rect x="9" y="12" width="1" height="1" fill="#3642AE"/>
<rect x="10" y="12" width="1" height="1" fill="#3642AE"/>
<rect x="10" y="11" width="1" height="1" fill="#3642AE"/>
<rect x="10" y="10" width="1" height="1" fill="#3642AE"/>
<rect x="10" y="9" width="1" height="1" fill="#55C6FF"/>
<rect x="10" y="8" width="1" height="1" fill="#4A91E6"/>
<rect x="10" y="7" width="1" height="1" fill="#4A91E6"/>
<rect x="10" y="6" width="1" height="1" fill="#5A5AC2"/>
<rect x="10" y="5" width="1" height="1" fill="#C83931"/>
<rect x="10" y="4" width="1" height="1" fill="#C83931"/>
<rect x="10" y="3" width="1" height="1" fill="#4A91E6"/>
<rect x="9" y="3" width="1" height="1" fill="#4A91E6"/>
<rect x="8" y="3" width="1" height="1" fill="#4A91E6"/>
<rect x="7" y="3" width="1" height="1" fill="#C83931"/>
<rect x="6" y="3" width="1" height="1" fill="#C83931"/>
<rect x="5" y="3" width="1" height="1" fill="#4A91E6"/>
<rect x="4" y="3" width="1" height="1" fill="#4A91E6"/>
<rect x="4" y="4" width="1" height="1" fill="#C83931"/>
<rect x="4" y="5" width="1" height="1" fill="#C83931"/>
<rect x="4" y="6" width="1" height="1" fill="#5A5AC2"/>
<rect x="4" y="7" width="1" height="1" fill="#4A91E6"/>
<rect x="4" y="8" width="1" height="1" fill="#4A91E6"/>
<rect x="4" y="9" width="1" height="1" fill="#55C6FF"/>
<rect x="4" y="10" width="1" height="1" fill="#3642AE"/>
<rect x="4" y="11" width="1" height="1" fill="#3642AE"/>
<rect x="5" y="11" width="1" height="1" fill="#2F2772"/>
<rect x="6" y="11" width="1" height="1" fill="#942B4E"/>
<rect x="7" y="11" width="1" height="1" fill="#942B4E"/>
<rect x="8" y="11" width="1" height="1" fill="#3642AE"/>
<rect x="9" y="11" width="1" height="1" fill="#3642AE"/>
<rect x="9" y="10" width="1" height="1" fill="#3642AE"/>
<rect x="9" y="9" width="1" height="1" fill="#55C6FF"/>
<rect x="9" y="8" width="1" height="1" fill="#4A91E6"/>
<rect x="9" y="7" width="1" height="1" fill="#4A91E6"/>
<rect x="9" y="6" width="1" height="1" fill="#5A5AC2"/>
<rect x="9" y="5" width="1" height="1" fill="#C83931"/>
<rect x="9" y="4" width="1" height="1" fill="#C83931"/>
<rect x="8" y="4" width="1" height="1" fill="#C83931"/>
<rect x="7" y="4" width="1" height="1" fill="#C83931"/>
<rect x="6" y="4" width="1" height="1" fill="#C83931"/>
<rect x="5" y="4" width="1" height="1" fill="#C83931"/>
<rect x="5" y="5" width="1" height="1" fill="#C83931"/>
<rect x="5" y="6" width="1" height="1" fill="#5A5AC2"/>
<rect x="5" y="7" width="1" height="1" fill="#4A91E6"/>
<rect x="5" y="8" width="1" height="1" fill="#4A91E6"/>
<rect x="5" y="9" width="1" height="1" fill="#55C6FF"/>
<rect x="5" y="10" width="1" height="1" fill="#2F2772"/>
<rect x="6" y="10" width="1" height="1" fill="#942B4E"/>
<rect x="7" y="10" width="1" height="1" fill="#942B4E"/>
<rect x="8" y="10" width="1" height="1" fill="#3642AE"/>
<rect x="8" y="9" width="1" height="1" fill="#55C6FF"/>
<rect x="8" y="8" width="1" height="1" fill="#4A91E6"/>
<rect x="8" y="7" width="1" height="1" fill="#4A91E6"/>
<rect x="8" y="6" width="1" height="1" fill="#5A5AC2"/>
<rect x="8" y="5" width="1" height="1" fill="#C83931"/>
<rect x="7" y="5" width="1" height="1" fill="#C83931"/>
<rect x="6" y="5" width="1" height="1" fill="#C83931"/>
<rect x="6" y="6" width="1" height="1" fill="#942B4E"/>
<rect x="6" y="7" width="1" height="1" fill="#C83931"/>
<rect x="6" y="8" width="1" height="1" fill="#C83931"/>
<rect x="6" y="9" width="1" height="1" fill="#C83931"/>
<rect x="7" y="9" width="1" height="1" fill="#C83931"/>
<rect x="7" y="8" width="1" height="1" fill="#C83931"/>
<rect x="7" y="7" width="1" height="1" fill="#C83931"/>
<rect x="7" y="6" width="1" height="1" fill="#942B4E"/>
<rect x="2" width="1" height="1" fill="#19153D"/>
<rect x="4" width="1" height="1" fill="#19153D"/>
<rect x="3" width="1" height="1" fill="#19153D"/>
<rect x="5" width="1" height="1" fill="#19153D"/>
<rect x="6" width="1" height="1" fill="#942B4E"/>
<rect x="7" width="1" height="1" fill="#942B4E"/>
<rect x="8" width="1" height="1" fill="#19153D"/>
<rect x="9" width="1" height="1" fill="#19153D"/>
<rect x="10" width="1" height="1" fill="#19153D"/>
<rect x="11" width="1" height="1" fill="#19153D"/>
<rect x="12" width="1" height="1" fill="#19153D"/>
<rect x="13" y="1" width="1" height="1" fill="#19153D"/>
<rect x="13" y="2" width="1" height="1" fill="#19153D"/>
<rect x="13" y="3" width="1" height="1" fill="#19153D"/>
<rect x="13" y="4" width="1" height="1" fill="#942B4E"/>
<rect x="13" y="5" width="1" height="1" fill="#C83931"/>
<rect x="13" y="6" width="1" height="1" fill="#942B4E"/>
<rect x="13" y="8" width="1" height="1" fill="#2F2772"/>
<rect x="13" y="9" width="1" height="1" fill="#2F2772"/>
<rect x="13" y="10" width="1" height="1" fill="#19153D"/>
<rect x="13" y="11" width="1" height="1" fill="#19153D"/>
<rect x="13" y="12" width="1" height="1" fill="#19153D"/>
<rect x="13" y="13" width="1" height="1" fill="#19153D"/>
<rect x="13" y="14" width="1" height="1" fill="#19153D"/>
<rect x="12" y="15" width="1" height="1" fill="#19153D"/>
<rect x="11" y="15" width="1" height="1" fill="#19153D"/>
<rect x="10" y="15" width="1" height="1" fill="#19153D"/>
<rect x="9" y="15" width="1" height="1" fill="#19153D"/>
<rect x="8" y="15" width="1" height="1" fill="#19153D"/>
<rect x="7" y="15" width="1" height="1" fill="#19153D"/>
<rect x="6" y="15" width="1" height="1" fill="#19153D"/>
<rect x="5" y="15" width="1" height="1" fill="#19153D"/>
<rect x="4" y="15" width="1" height="1" fill="#19153D"/>
<rect x="3" y="15" width="1" height="1" fill="#19153D"/>
<rect x="2" y="15" width="1" height="1" fill="#19153D"/>
<rect x="1" y="15" width="1" height="1" fill="#19153D"/>
<rect y="14" width="1" height="1" fill="#19153D"/>
<rect y="13" width="1" height="1" fill="#19153D"/>
<rect y="12" width="1" height="1" fill="#19153D"/>
<rect y="11" width="1" height="1" fill="#19153D"/>
<rect y="10" width="1" height="1" fill="#19153D"/>
<rect y="9" width="1" height="1" fill="#19153D"/>
<rect y="8" width="1" height="1" fill="#19153D"/>
<rect y="7" width="1" height="1" fill="#19153D"/>
<rect y="6" width="1" height="1" fill="#942B4E"/>
<rect y="5" width="1" height="1" fill="#C83931"/>
<rect y="4" width="1" height="1" fill="#942B4E"/>
<rect y="3" width="1" height="1" fill="#19153D"/>
<rect y="2" width="1" height="1" fill="#19153D"/>
<rect y="1" width="1" height="1" fill="#19153D"/>
<rect x="13" y="7" width="1" height="1" fill="#2F2772"/>
</g>
<defs>
<clipPath id="clip0_24_2">
<rect width="14" height="16" fill="white"/>
</clipPath>
</defs>
</svg>
