<svg width="800" height="800" viewBox="0 0 800 800" fill="none" xmlns="http://www.w3.org/2000/svg">
<path d="M384.277 53.3299C392.287 43.1456 407.713 43.1456 415.723 53.3299L476.017 130.017C481.03 136.391 489.393 139.108 497.193 136.898L591.047 110.297C603.513 106.764 615.997 115.833 616.487 128.779L620.19 226.261C620.5 234.363 625.667 241.478 633.28 244.274L724.843 277.92C737.003 282.389 741.773 297.063 734.56 307.826L680.26 388.867C675.747 395.603 675.747 404.397 680.26 411.133L734.56 492.173C741.773 502.937 737.003 517.61 724.843 522.08L633.28 555.727C625.667 558.523 620.5 565.637 620.19 573.74L616.487 671.22C615.997 684.167 603.513 693.237 591.047 689.703L497.193 663.103C489.393 660.89 481.03 663.61 476.017 669.983L415.723 746.67C407.713 756.853 392.287 756.853 384.277 746.67L323.983 669.983C318.972 663.61 310.608 660.89 302.807 663.103L208.952 689.703C196.488 693.237 184.005 684.167 183.513 671.22L179.809 573.74C179.501 565.637 174.332 558.523 166.721 555.727L75.1557 522.08C62.9953 517.61 58.2274 502.937 65.439 492.173L119.74 411.133C124.254 404.397 124.254 395.603 119.74 388.867L65.439 307.826C58.2274 297.063 62.9953 282.389 75.1557 277.92L166.722 244.274C174.332 241.478 179.501 234.363 179.809 226.261L183.513 128.779C184.005 115.833 196.488 106.764 208.952 110.297L302.807 136.898C310.608 139.108 318.972 136.391 323.983 130.017L384.277 53.3299Z" fill="#692860" stroke="#692860" stroke-width="50"/>
<path d="M300 400L366.667 466.667L500 333.333" stroke="white" stroke-width="50" stroke-linecap="round" stroke-linejoin="round"/>
</svg>
